<svg xmlns="http://www.w3.org/2000/svg" height="25" viewBox="0 96 960 960" width="25"><path d="M486 723q41 0 70-28.42T585 625V373h86q12.75 0 21.375-8.675 8.625-8.676 8.625-21.5 0-12.825-8.625-21.325T671 313h-96q-12.75 0-21.375 8.625T545 343v207q-11-9-26.319-14-15.319-5-32.681-5-39.06 0-66.03 27.366t-26.97 67Q393 665 419.97 694T486 723ZM260 856q-24 0-42-18t-18-42V236q0-24 18-42t42-18h560q24 0 42 18t18 42v560q0 24-18 42t-42 18H260Zm0-60h560V236H260v560ZM140 976q-24 0-42-18t-18-42V326q0-12.75 8.675-21.375 8.676-8.625 21.5-8.625 12.825 0 21.325 8.625T140 326v590h590q12.75 0 21.375 8.675 8.625 8.676 8.625 21.5 0 12.825-8.625 21.325T730 976H140Zm120-740v560-560Z" fill="#fff"/></svg>